<?xml version="1.0" encoding="utf-8"?>
<!-- Generator: Adobe Illustrator 17.0.0, SVG Export Plug-In . SVG Version: 6.00 Build 0)  -->
<!DOCTYPE svg PUBLIC "-//W3C//DTD SVG 1.1//EN" "http://www.w3.org/Graphics/SVG/1.1/DTD/svg11.dtd">
<svg version="1.1" id="Capa_1" xmlns="http://www.w3.org/2000/svg" xmlns:xlink="http://www.w3.org/1999/xlink" x="0px" y="0px"
	 width="200px" height="200px" viewBox="1150 1150 200 200" enable-background="new 1150 1150 200 200" xml:space="preserve">
<path d="M1202.598,1302.222h-2.052l-5.061,14.581l-5.226-14.581h-3.528l6.565,18.385l2.627,0.026L1202.598,1302.222
	L1202.598,1302.222z M1221.939,1302.222v18.411h11.161l0.082-4.184h-1.012c0,2.543-1.341,2.654-3.037,2.654h-2.298
	c-1.669,0-1.669,0-1.669-1.888v-14.992H1221.939z M1248.3,1316.448h-1.012c-0.165,2.159-0.848,2.654-2.298,2.654h-2.954
	c-1.286,0-1.56-0.028-1.56-1.424v-5.882h3.091c1.532,0,2.08,0.794,2.08,2.326h1.013v-5.936h-0.985
	c-0.044,0.266-0.099,0.53-0.165,0.792c-0.273,0.958-0.929,1.286-1.942,1.286h-3.091v-5.252c0-1.176,0.246-1.258,1.56-1.258h2.079
	c1.723,0,2.763,0.547,2.763,2.735h1.013l-0.082-4.268h-13.107v0.848c0.712,0.109,1.176,0.162,1.532,0.273
	c0.355,0.11,0.575,0.22,0.712,0.382c0.301,0.329,0.301,0.93,0.301,2.299v14.608h10.969L1248.3,1316.448L1248.3,1316.448z
	 M1267.52,1320.633v-18.411h-1.97v14.39l-8.317-14.39h-5.882v0.848c0.683,0.136,1.15,0.218,1.504,0.301
	c0.356,0.081,0.602,0.192,0.767,0.327c0.327,0.301,0.411,0.848,0.411,2.106v14.827h1.97v-15.074l8.726,15.074h2.79V1320.633
	L1267.52,1320.633z M1285.276,1306.188c-0.327-2.408-2.024-4.268-6.264-4.268c-6.1,0-7.607,4.296-7.607,9.302
	c0,6.072,2.135,9.711,7.744,9.711c2.68,0,4.87-0.739,5.635-1.04v-2.078c-0.901,0.655-2.489,1.585-4.787,1.585
	c-5.035,0-5.362-5.799-5.362-8.863c0-2.818,0.602-7.086,4.129-7.086c2.326,0,2.874,1.75,3.012,2.735L1285.276,1306.188
	L1285.276,1306.188L1285.276,1306.188z M1289.488,1302.222l0.029,18.411h3.118v-18.411H1289.488z M1328.641,1320.633v-18.411h-1.97
	v14.39l-8.317-14.39h-5.882v0.848c0.683,0.136,1.15,0.218,1.503,0.301c0.356,0.081,0.602,0.192,0.767,0.327
	c0.327,0.301,0.412,0.848,0.412,2.106v14.827h1.968v-15.074l8.728,15.074h2.79V1320.633L1328.641,1320.633z M1210.012,1278.833
	c-0.328-2.408-2.025-4.27-6.265-4.27c-6.101,0-7.605,4.296-7.605,9.302c0,6.074,2.134,9.713,7.743,9.713
	c2.681,0,4.87-0.739,5.636-1.04v-2.08c-0.902,0.657-2.489,1.587-4.788,1.587c-5.034,0-5.362-5.799-5.362-8.865
	c0-2.816,0.601-7.086,4.13-7.086c2.326,0,2.874,1.753,3.01,2.737L1210.012,1278.833L1210.012,1278.833z M1251.234,1293.278v-18.411
	h-3.886l-5.17,14.691l-5.279-14.691h-6.348v0.846c0.684,0.136,1.121,0.22,1.478,0.301c0.355,0.081,0.602,0.192,0.766,0.327
	c0.327,0.301,0.438,0.848,0.438,2.106v14.829h1.97v-15.375l5.471,15.375h2.106l5.471-15.539v15.539h2.984V1293.278
	L1251.234,1293.278z M1256.497,1274.867v12.309c0,4.076,1.779,6.403,6.593,6.403c6.211,0,6.538-3.803,6.538-7.415v-11.297h-2.216
	v11.598c0,2.763,0,5.582-3.967,5.582c-3.694,0-3.72-3.091-3.72-6.211v-10.998L1256.497,1274.867L1256.497,1274.867z
	 M1289.411,1293.278v-18.411h-1.97v14.39l-8.317-14.39h-5.882v0.846c0.684,0.136,1.15,0.22,1.504,0.301
	c0.356,0.081,0.602,0.192,0.767,0.327c0.327,0.301,0.41,0.848,0.41,2.106v14.829h1.97V1278.2l8.728,15.076h2.79V1293.278
	L1289.411,1293.278z M1295.199,1274.867l0.028,18.411h3.117v-18.411H1295.199L1295.199,1274.867z M1316.068,1279.134l-0.109-4.268
	h-14.007l-0.109,4.184h1.014c0.163-2.024,0.711-2.654,2.761-2.654h1.723v16.88h3.23v-16.88h1.695c1.998,0,2.792,0.602,2.792,2.737
	H1316.068L1316.068,1279.134z M1347.467,1279.134l-0.109-4.268h-14.007l-0.109,4.184h1.014c0.162-2.024,0.711-2.654,2.761-2.654
	h1.723v16.88h3.23v-16.88h1.695c1.996,0,2.79,0.602,2.79,2.737H1347.467L1347.467,1279.134z"/>
<path fill="#E8AE38" d="M1214.048,1209.427c0.095,0.166,0.038,0.378-0.128,0.474c-0.127,0.073-0.286,0.058-0.398-0.037
	c-0.564-0.38-1.221-0.599-1.901-0.633c-2.06-0.108-3.793,1.547-3.915,3.603c-0.188,3.178-3.324,5.457-6.577,5.286
	c-3.492-0.183-6.174-3.161-5.991-6.653c0,0,0-0.001,0-0.002c0.065-1.25,0.521-2.164,1.219-3.379c1.81-3.147,5.362-4.339,8.995-4.148
	C1209.129,1204.136,1212.284,1206.329,1214.048,1209.427C1214.048,1209.427,1212.284,1206.329,1214.048,1209.427L1214.048,1209.427z
	"/>
<path fill="#D35B4A" d="M1233.331,1180.477c1.969-3.032,6.024-3.894,9.056-1.925c3.032,1.969,3.894,6.024,1.925,9.056
	c-1.969,3.032-12.144,10.922-14.147,9.377C1228.024,1195.335,1231.363,1183.509,1233.331,1180.477
	C1233.331,1180.477,1231.363,1183.509,1233.331,1180.477L1233.331,1180.477z"/>
<path fill="#6379B9" d="M1153.183,1319.802c5.169,2.554,10.765,3.854,16.377,4.904c0.932,0.116,1.497-0.653,1.582-1.029
	c7.249-38.08,26.01-71.994,52.496-98.063c-1.727-4.602-3.8-8.851-6.228-13.06c-6.649,6.26-12.869,12.961-18.616,20.058
	c-1.55,0.987-4.682-0.519-5.684,0.665c-18.264,21.593-34.125,53.906-40.55,84.784
	C1152.395,1318.822,1153.038,1319.731,1153.183,1319.802C1153.183,1319.802,1153.038,1319.731,1153.183,1319.802z"/>
<path fill="#D35B4A" d="M1190.884,1180.183l8.901-4.797c0.253-0.129,0.304-0.129,0.556,0.055c4.541,3.33,8.8,7.027,12.735,11.055
	c0.192,0.163,0.461,0.199,0.689,0.092l2.106-1.063c0,0,0.541-0.019,0.622,0.068c17.441,18.49,28.225,43.29,28.605,70.519
	c0.001,0.088-0.134,0.331-0.253,0.429c-1.696,0.792-6.171,1.409-8.668,1.398c-0.303-0.002-0.472-0.207-0.477-0.504
	c-0.003-2.89-0.135-5.779-0.397-8.657l-3.743,0.667c-2.512-28.444-18.113-53.497-40.744-68.552
	C1190.533,1180.658,1190.673,1180.309,1190.884,1180.183C1190.884,1180.183,1190.673,1180.309,1190.884,1180.183z"/>
<path fill="#6379B9" d="M1232.409,1203.29l1.642-0.903c3.579-1.697,7.513-3.343,13.839-4.562c4.683-0.902,4.603-0.712,8.171-0.991
	l1.331,3.236c4.766-0.275,11.404,0.689,16.058,2.32c0.088,0.031,0.289,0.298,0.303,0.402c0,0-0.057,5.848-0.154,7.881
	c-0.021,0.434-0.45,0.543-0.641,0.474c-6.879-2.472-13.531-2.75-18.686-2.226c-1.328,0.135-2.603,0.316-3.826,0.535
	c-2.446-1.049-5.402-1.983-9.293-3.154l-2.011,6.811c-0.448,0.221-0.886,0.446-1.313,0.676
	C1236.215,1210.194,1234.406,1206.689,1232.409,1203.29C1232.409,1203.29,1234.394,1206.65,1232.409,1203.29z"/>
<path fill="#E8AE38" d="M1242.129,1208.5c10.579,3.186,12.642,4.193,19.148,13.897c3.393,5.057,8.229,8.113,12.222,9.811
	c0.5,0.209,0.576,0.53,0.436,0.871c-0.686,1.652-4.499,6.594-4.762,6.822c-0.399,0.345-1.031,0.351-1.409,0.154
	c-2.827-1.287-11.647-6.6-15.495-12.882c-4.033-6.582-8.297-8.116-12.892-9.359L1242.129,1208.5L1242.129,1208.5z"/>
<path d="M1224.931,1284.141c0,3.5-0.192,7.906-4.187,7.906c-3.939,0-4.35-4.514-4.35-7.906c0-3.694,0.328-8.045,4.35-8.045
	C1224.657,1276.096,1224.931,1280.557,1224.931,1284.141C1224.931,1284.141,1224.931,1280.557,1224.931,1284.141z
	 M1228.159,1284.141c0-5.829-1.696-9.577-7.413-9.577c-5.937,0-7.578,3.749-7.578,9.577c0,5.799,1.806,9.439,7.578,9.439
	C1226.436,1293.579,1228.159,1289.885,1228.159,1284.141C1228.159,1284.141,1228.159,1289.885,1228.159,1284.141z
	 M1326.992,1286.137h-5.553l2.709-7.358L1326.992,1286.137z M1332.654,1293.278l-6.646-18.411h-5.281v0.846
	c0.382,0.055,0.629,0.081,0.875,0.137c0.602,0.109,1.176,0.246,1.176,1.014c0,0.162-0.273,1.066-0.438,1.531l-5.415,14.884h1.941
	l2.025-5.609h6.675l1.996,5.609H1332.654z M1212.857,1313.494h-5.553l2.709-7.36L1212.857,1313.494z M1218.521,1320.633
	l-6.648-18.411h-5.281v0.848c0.383,0.055,0.629,0.081,0.875,0.136c0.602,0.109,1.176,0.246,1.176,1.012
	c0,0.165-0.274,1.066-0.438,1.533l-5.417,14.882h1.942l2.025-5.609h6.676l1.997,5.609L1218.521,1320.633L1218.521,1320.633z
	 M1306.048,1313.494h-5.554l2.711-7.36L1306.048,1313.494z M1311.711,1320.633l-6.646-18.411h-5.281v0.848
	c0.382,0.055,0.629,0.081,0.875,0.136c0.602,0.109,1.176,0.246,1.176,1.012c0,0.165-0.273,1.066-0.438,1.533l-5.417,14.882h1.943
	l2.025-5.609h6.675l1.996,5.609L1311.711,1320.633L1311.711,1320.633z M1341.529,1313.494h-5.553l2.707-7.36L1341.529,1313.494z
	 M1347.19,1320.633l-6.646-18.411h-5.281v0.848c0.382,0.055,0.629,0.081,0.875,0.136c0.602,0.109,1.176,0.246,1.176,1.012
	c0,0.165-0.273,1.066-0.438,1.533l-5.415,14.882h1.941l2.024-5.609h6.675l1.996,5.609L1347.19,1320.633L1347.19,1320.633z"/>
</svg>
